<?xml version="1.0" encoding="utf-8"?>

<!DOCTYPE svg PUBLIC "-//W3C//DTD SVG 1.1//EN" "http://www.w3.org/Graphics/SVG/1.1/DTD/svg11.dtd">
<!-- Uploaded to: SVG Repo, www.svgrepo.com, Generator: SVG Repo Mixer Tools -->
<svg height="800px" width="800px" version="1.1" id="_x32_" xmlns="http://www.w3.org/2000/svg" xmlns:xlink="http://www.w3.org/1999/xlink" 
	 viewBox="0 0 512 512"  xml:space="preserve">
<style type="text/css">
	.st0{fill:#000000;}
</style>
<g>
	<path class="st0" d="M508.699,263.116c2.096-1.767,3.301-4.369,3.301-7.116c0-2.73-1.205-5.349-3.301-7.115l-49.448-41.858
		c-2.971-2.506-4.063-6.602-2.747-10.264l21.901-60.956c0.932-2.586,0.674-5.445-0.699-7.822c-1.372-2.377-3.726-4.031-6.424-4.513
		l-63.759-11.453c-3.839-0.691-6.843-3.694-7.533-7.533l-11.445-63.767c-0.489-2.698-2.136-5.059-4.513-6.424
		c-2.376-1.382-5.236-1.639-7.822-0.707l-60.964,21.909c-3.662,1.316-7.758,0.224-10.272-2.747l-41.858-49.44
		C261.349,1.205,258.738,0,256,0c-2.738,0-5.349,1.205-7.116,3.309l-41.858,49.44c-2.514,2.971-6.61,4.063-10.272,2.762
		l-60.956-21.908c-2.586-0.932-5.446-0.675-7.823,0.691c-2.377,1.381-4.024,3.726-4.513,6.424l-11.452,63.767
		c-0.691,3.839-3.694,6.842-7.533,7.533l-63.76,11.436c-2.698,0.498-5.051,2.136-6.424,4.514c-1.374,2.377-1.631,5.236-0.699,7.822
		l21.909,60.973c1.309,3.662,0.216,7.758-2.755,10.28L3.3,248.885C1.204,250.651,0,253.27,0,256c0,2.747,1.204,5.349,3.3,7.116
		l49.448,41.858c2.971,2.522,4.064,6.618,2.747,10.28L33.594,376.21c-0.932,2.586-0.674,5.445,0.699,7.822
		c1.373,2.378,3.726,4.016,6.424,4.513l63.76,11.436c3.839,0.691,6.842,3.695,7.533,7.534l11.444,63.783
		c0.489,2.698,2.136,5.044,4.513,6.425c2.378,1.365,5.236,1.622,7.822,0.691l60.964-21.909c3.662-1.317,7.758-0.224,10.272,2.747
		l41.858,49.456c1.767,2.088,4.378,3.292,7.116,3.292c2.738,0,5.349-1.204,7.115-3.292l41.858-49.456
		c2.514-2.971,6.61-4.064,10.272-2.747l60.956,21.909c2.586,0.931,5.445,0.674,7.822-0.707c2.378-1.365,4.024-3.726,4.514-6.424
		l11.452-63.767c0.69-3.839,3.694-6.843,7.533-7.534l63.759-11.436c2.698-0.482,5.052-2.136,6.424-4.513
		c1.374-2.378,1.631-5.236,0.699-7.822l-21.901-60.956c-1.316-3.662-0.224-7.757,2.747-10.28L508.699,263.116z M256,425.135
		c-93.41,0-169.135-75.725-169.135-169.135S162.59,86.865,256,86.865S425.136,162.59,425.136,256S349.41,425.135,256,425.135z"/>
</g>
</svg>