<?xml version="1.0" encoding="utf-8"?>

<!DOCTYPE svg PUBLIC "-//W3C//DTD SVG 1.1//EN" "http://www.w3.org/Graphics/SVG/1.1/DTD/svg11.dtd">
<!-- Uploaded to: SVG Repo, www.svgrepo.com, Generator: SVG Repo Mixer Tools -->
<svg height="800px" width="800px" version="1.1" id="_x32_" xmlns="http://www.w3.org/2000/svg" xmlns:xlink="http://www.w3.org/1999/xlink" 
	 viewBox="0 0 512 512"  xml:space="preserve">
<style type="text/css">
	.st0{fill:#000000;}
</style>
<g>
	<path class="st0" d="M512,256l-61.567-52.118l27.283-75.913l-79.417-14.26L384.04,34.276l-75.921,27.291L256,0l-52.118,61.566
		l-75.913-27.282l-14.268,79.424L34.283,127.96l27.284,75.929L0,256l61.567,52.118l-27.284,75.913l79.418,14.26l14.259,79.433
		l75.921-27.291L256,512l52.118-61.566l75.913,27.282l14.267-79.424l79.417-14.252l-27.283-75.921L512,256z M256,427.464V84.536
		c94.693,0,171.464,76.772,171.464,171.464S350.693,427.464,256,427.464z"/>
</g>
</svg>